<?xml version="1.0" encoding="utf-8"?>
<!-- Generator: Adobe Illustrator 22.1.0, SVG Export Plug-In . SVG Version: 6.00 Build 0)  -->
<svg version="1.1" id="Calque_1" xmlns="http://www.w3.org/2000/svg" xmlns:xlink="http://www.w3.org/1999/xlink" x="0px" y="0px"
	 viewBox="0 0 274.8 306.5" style="enable-background:new 0 0 274.8 306.5;" xml:space="preserve">
<style type="text/css">
	.st0{fill:#1479FF;}
</style>
<title>Fichier 1</title>
<g id="Calque_2_1_">
	<g id="Layer_1">
		<path class="st0" d="M214.8,0H60.1C27,0.1,0.2,26.9,0.1,60.1c0,200.6-0.4,186.9,0.4,189.6c1.9,33.1,30.3,58.4,63.4,56.5
			c31.7-1.8,56.5-28,56.6-59.8v-26.1h29.9c52.5,0,76.6-66.3,35.8-99.9c8.9,0,29.6,0.2,31.9-0.4c33.1-2.1,58.3-30.6,56.2-63.7
			C272.3,24.8,246.3,0.3,214.8,0L214.8,0z M194.1,164L194.1,164c0,24.1-19.5,43.6-43.6,43.6l0,0c-27.5,0-81.1-0.3-91.4,0
			c-43.2,1.2-46.3,37.3-46.3,37.3V83c0,0,3.1,36,46.3,37.3c10.6,0.3,34.2,0,91.4,0l0,0C174.6,120.3,194.1,139.8,194.1,164
			C194.1,164,194.1,164,194.1,164z"/>
	</g>
</g>
</svg>
