<svg xmlns="http://www.w3.org/2000/svg" viewBox="0 0 274.83 306.47"><defs><style>.cls-1{fill:#fff;}</style></defs><title>Fichier 1</title><g id="Calque_2" data-name="Calque 2"><g id="Layer_1" data-name="Layer 1"><path class="cls-1" d="M214.78,0H60.12a60.12,60.12,0,0,0-60,60.06C.07,260.67-.25,246.93.5,249.7a60.05,60.05,0,0,0,120-3.28V220.34h29.92c52.47,0,76.61-66.26,35.75-99.89,8.94,0,29.62.18,31.89-.43a60.06,60.06,0,0,0-3.3-120ZM194.1,164V164a43.65,43.65,0,0,1-43.65,43.65h0c-27.5,0-81.08-.3-91.39,0-43.23,1.24-46.31,37.27-46.31,37.27V83s3.08,36,46.31,37.28c10.64.3,34.21,0,91.39,0h0A43.65,43.65,0,0,1,194.1,164Z"/></g></g></svg>